# xmcd
#
# Track frame offsets:
#	150
#	18089
#	34122
#	52806
#	66109
#	80076
#	101230
#	111599
#	127817
#	147567
#
# Disc length: 2128 seconds
#
# Revision: 0
# Processed by: cddbd v1.5.2PL0 Copyright (c) Steve Scherf et al.
# Submitted via: MusicWizard 7.0.2
#
DISCID=88084e0a
DTITLE=Various Artist - Best Of Independent Country Music 2002
DYEAR=1900
DGENRE=Country
TTITLE0=Hard Times - Dear Mama
TTITLE1=Mike Locken - One Of Those Days
TTITLE2=Nathan Sheppard - Dying Day
TTITLE3=The Joyful Noise - Heaven Bound
TTITLE4=Lee Gibson - Tennessee Rain
TTITLE5=Maskil - Bighorn Mountains
TTITLE6=Clay Rigdon - Hello Old Friends
TTITLE7=Todd B. Pumick - Miriam
TTITLE8=Cathryn Beeks - You Know
TTITLE9=Quest 1 - I`d Cry
EXTD=
EXTT0=
EXTT1=
EXTT2=
EXTT3=
EXTT4=
EXTT5=
EXTT6=
EXTT7=
EXTT8=
EXTT9=
PLAYORDER=
